# xmcd
#
# Track frame offsets: 
#        150
#        15368
#        34973
#        53243
#        68538
#        91653
#        108288
#        125115
#        141883
#        156838
#        180920
#
# Disc length: 2626 seconds
#
# Revision: 3
# Processed by: cddbd v1.5.2PL0 Copyright (c) Steve Scherf et al.
# Submitted via: ExactAudioCopy v0.99pb3
#
DISCID=850a400b
DTITLE=Graham Parker - Your Country
DYEAR=2004
DGENRE=Country
TTITLE0=Anything For A Laugh
TTITLE1=The Rest Is History
TTITLE2=Cruel Lips
TTITLE3=Almost Thanksgiving Day
TTITLE4=Nation Of Shopkeepers
TTITLE5=Queen Of Compromise
TTITLE6=Things I've Never Said
TTITLE7=Sugaree
TTITLE8=Tornado Alley
TTITLE9=Fair Ground
TTITLE10=Crawling From The Wreckage (Revisited)
EXTD=
EXTT0=
EXTT1=
EXTT2=
EXTT3=
EXTT4=
EXTT5=
EXTT6=
EXTT7=
EXTT8=
EXTT9=
EXTT10=
PLAYORDER=
